<svg width="22" height="22" viewBox="0 0 22 22" fill="none" xmlns="http://www.w3.org/2000/svg">
<path fill-rule="evenodd" clip-rule="evenodd" d="M4 1.5H18C19.3807 1.5 20.5 2.61926 20.5 4V14L14.5194 12.4052C13.5108 12.1362 12.4714 12 11.4275 12H10.5725C9.52863 12 8.4892 12.1362 7.48056 12.4052L1.5 14V4C1.5 2.61926 2.61929 1.5 4 1.5ZM0 4C0 1.79083 1.79086 0 4 0H18C20.2091 0 22 1.79083 22 4V18C22 20.2092 20.2091 22 18 22H4C1.79086 22 0 20.2092 0 18V4ZM8 6C8 7.10455 7.10458 8 6 8C4.89542 8 4 7.10455 4 6C4 4.89545 4.89542 4 6 4C7.10458 4 8 4.89545 8 6Z" fill="#3369F3"/>
</svg>
