<svg width="19" height="19" viewBox="0 0 19 19" fill="none" xmlns="http://www.w3.org/2000/svg">
<path fill-rule="evenodd" clip-rule="evenodd" d="M10.5922 10.4138C9.16031 11.8457 6.83871 11.8457 5.40679 10.4138C3.97486 8.98187 3.97486 6.66027 5.40679 5.22834C6.83871 3.79642 9.16031 3.79642 10.5922 5.22834C12.0242 6.66027 12.0242 8.98187 10.5922 10.4138ZM11.0326 11.7968C9.07239 13.2961 6.25681 13.1494 4.46398 11.3566C2.51136 9.40398 2.51136 6.23816 4.46398 4.28553C6.4166 2.33291 9.58242 2.33291 11.535 4.28553C13.3278 6.07828 13.4746 8.8937 11.9754 10.8539L15.5421 14.4206L14.5993 15.3634L11.0326 11.7968Z" fill="#999999"/>
</svg>
